<svg xmlns="http://www.w3.org/2000/svg" width="544" height="472.612" viewBox="0 0 544 472.612">
  <g id="book" transform="translate(0 6.585)">
    <path id="Path_1" data-name="Path 1" d="M0,244.031H110.023V375.777H0Zm0,0" fill="#37a000"/>
    <path id="Path_2" data-name="Path 2" d="M0,405.547H110.023v60.48H0Zm0,0" fill="#37a000"/>
    <path id="Path_3" data-name="Path 3" d="M0,10.133H110.023V65.7H0Zm0,0" fill="#37a000"/>
    <path id="Path_4" data-name="Path 4" d="M110.023,95.469H0V214.262H110.023ZM54.445,187.816c-14.027,0-23.824-14.5-23.824-35.258s9.8-35.262,23.824-35.262,23.828,14.5,23.828,35.262-9.8,35.258-23.828,35.258Zm0,0" fill="#37a000"/>
    <path id="Path_5" data-name="Path 5" d="M140.023,244.031H250.05V375.777H140.023Zm0,0" fill="#37a000"/>
    <path id="Path_6" data-name="Path 6" d="M140.023,95.469V214.262H250.05V95.469ZM195.1,187.816c-14.031,0-23.828-14.5-23.828-35.258s9.8-35.262,23.828-35.262,23.824,14.5,23.824,35.262S209.125,187.816,195.1,187.816Zm0,0" fill="#37a000"/>
    <path id="Path_7" data-name="Path 7" d="M140.023,405.547H250.05v60.48H140.023Zm0,0" fill="#37a000"/>
    <path id="Path_8" data-name="Path 8" d="M140.024,10.133v0ZM245.426,65.7" transform="translate(34)"/>
    <path id="Path_9" data-name="Path 9" d="M374.715,76.035l-108.34,42.773,39.473,100.078L414.922,177.98Zm-7.477,83.176c-.75,14.641-9.609,19.551-13.383,20.98a19.477,19.477,0,0,1-6.836,1.23c-4.68,0-10.816-1.664-17.094-8.059a51.259,51.259,0,0,1-10.852-17.691,51.269,51.269,0,0,1-3.609-20.437c.75-14.637,9.609-19.547,13.383-20.98s13.664-3.633,23.93,6.828a55.611,55.611,0,0,1,14.461,38.129Zm0,0" transform="translate(34)" fill="#494949"/>
    <path id="Path_10" data-name="Path 10" d="M425.848,205.68l-109.078,40.9L369.887,381.25l109.227-40.527Zm0,0" transform="translate(34)" fill="#494949"/>
    <path id="Path_11" data-name="Path 11" d="M490.035,368.418,380.812,408.949,403.035,465.3,512,424.1Zm0,0" transform="translate(32)" fill="#494949"/>
    <path id="Path_14" data-name="Path 14" d="M0,0H110V60H0Z" transform="translate(140 6)" fill="#37a000"/>
    <path id="Path_13" data-name="Path 13" d="M0,0" transform="translate(256.5 6.5)" fill="none" stroke="#707070" stroke-width="1"/>
    <path id="Path_12" data-name="Path 12" d="M0,0H118V60H0Z" transform="translate(267.902 35.703) rotate(-21)" fill="#494949"/>
  </g>
</svg>
