<svg xmlns="http://www.w3.org/2000/svg" width="177.562" height="31.872" viewBox="0 0 177.562 31.872">
  <g id="Group_34" data-name="Group 34" transform="translate(-408.326 -18.219)">
    <g id="Group_31" data-name="Group 31" transform="translate(408.326 18.219)">
      <g id="Group_24" data-name="Group 24" transform="translate(8.212 8.715)">
        <g id="Group_23" data-name="Group 23">
          <path id="Path_4" data-name="Path 4" d="M457.114,68.85q-.088.719-.263,1.629t-.368,2.26a21.922,21.922,0,0,1-4.939.578,13.913,13.913,0,0,1-2.732-.263,7.658,7.658,0,0,1-2.443-.937,7.145,7.145,0,0,1-1.988-1.778,7.533,7.533,0,0,1-1.288-2.671,12.176,12.176,0,0,1-.429-3.232,12.77,12.77,0,0,1,.709-4.239,8.163,8.163,0,0,1,2.076-3.319,7.2,7.2,0,0,1,3.039-1.751,13.916,13.916,0,0,1,3.722-.464,21.745,21.745,0,0,1,2.347.131,22.505,22.505,0,0,1,2.855.534l.263,3.836a14.325,14.325,0,0,0-4.546-.893,6.266,6.266,0,0,0-2.247.4,4.534,4.534,0,0,0-1.818,1.27,5.119,5.119,0,0,0-1.084,2.005,8.484,8.484,0,0,0-.324,2.33,7.356,7.356,0,0,0,.516,2.881,3.754,3.754,0,0,0,1.774,1.883,6.037,6.037,0,0,0,2.867.666,11.165,11.165,0,0,0,1.914-.2A14.537,14.537,0,0,0,457.114,68.85Z" transform="translate(-442.664 -54.663)" fill="#fff"/>
          <path id="Path_5" data-name="Path 5" d="M526.051,54.663a12.353,12.353,0,0,1,3.862.6,8.443,8.443,0,0,1,3.135,1.787,7.448,7.448,0,0,1,1.935,2.89,10.064,10.064,0,0,1,.648,3.6,11.074,11.074,0,0,1-.683,3.854,9.188,9.188,0,0,1-1.979,3.214,8.042,8.042,0,0,1-3.232,2.032,12.455,12.455,0,0,1-4.125.674,12.241,12.241,0,0,1-3.862-.6,8.355,8.355,0,0,1-3.127-1.813,7.848,7.848,0,0,1-1.971-2.943,9.916,9.916,0,0,1-.674-3.626,11.051,11.051,0,0,1,.613-3.678,8.566,8.566,0,0,1,1.918-3.118,8.714,8.714,0,0,1,3.337-2.119A12,12,0,0,1,526.051,54.663Zm0,3.608a5.03,5.03,0,0,0-2.714.744,4.452,4.452,0,0,0-1.78,2.216,8.6,8.6,0,0,0-.584,3.205,7.215,7.215,0,0,0,.48,2.715,4.151,4.151,0,0,0,1.57,1.927,4.525,4.525,0,0,0,2.592.736,4.8,4.8,0,0,0,2.7-.762,4.611,4.611,0,0,0,1.745-2.242,8.816,8.816,0,0,0,.585-3.267,7.383,7.383,0,0,0-.454-2.645,3.938,3.938,0,0,0-1.527-1.909A4.587,4.587,0,0,0,526.05,58.271Z" transform="translate(-498.446 -54.663)" fill="#fff"/>
          <path id="Path_6" data-name="Path 6" d="M610.169,72.9q.4-3.976.67-8.933t.3-8.88q1.613.036,2.578.035,1.14,0,2.42-.035l-.195,2.978a13.252,13.252,0,0,1,.954-1.226,5.924,5.924,0,0,1,1.051-.893,6.062,6.062,0,0,1,1.366-.7,9.7,9.7,0,0,1,1.629-.42,10.917,10.917,0,0,1,1.884-.158,11.171,11.171,0,0,1,2.987.394,5.193,5.193,0,0,1,2.3,1.252,4.183,4.183,0,0,1,1.156,1.874,8.084,8.084,0,0,1,.28,2.154q0,.473-.053,1.506l-.362,7.654q-.069,1.594-.086,3.4-1.386-.035-2.368-.035-1.333,0-2.684.035.141-1.524.352-5.316t.211-5.018a4.833,4.833,0,0,0-.438-2.225,2.865,2.865,0,0,0-1.356-1.279,4.562,4.562,0,0,0-1.986-.438,4.788,4.788,0,0,0-1.96.4,4.428,4.428,0,0,0-1.575,1.173,5.5,5.5,0,0,0-1.085,1.944,18.376,18.376,0,0,0-.595,4.046q-.177,2.5-.282,6.708-1.351-.035-2.439-.035Q611.748,72.861,610.169,72.9Z" transform="translate(-570.111 -54.663)" fill="#fff"/>
        </g>
      </g>
      <g id="Group_27" data-name="Group 27" transform="translate(0 2.701)">
        <g id="Group_26" data-name="Group 26" transform="translate(0 0)">
          <g id="Group_25" data-name="Group 25" transform="translate(0 5.756)">
            <rect id="Rectangle_311" data-name="Rectangle 311" width="18.593" height="4.384" rx="2.192" transform="translate(0 18.566) rotate(-86.921)" fill="#fff"/>
          </g>
          <rect id="Rectangle_312" data-name="Rectangle 312" width="4.384" height="4.384" rx="2.192" transform="translate(1.073 4.378) rotate(-86.921)" fill="#fff"/>
        </g>
      </g>
      <g id="Group_28" data-name="Group 28" transform="translate(103.086 2.682)">
        <path id="Path_7" data-name="Path 7" d="M841.771,58.662q.245-1.261.307-1.769t.219-1.542a40.706,40.706,0,0,1,4.2-.788,28.429,28.429,0,0,1,3.521-.228,13.223,13.223,0,0,1,3.538.447,5.269,5.269,0,0,1,2.522,1.427,4,4,0,0,1,.911,2.82q0,1-.278,5.088t-.33,8.451q-1.333-.035-2.454-.035-1.07,0-2.507.035.23-2.119.372-4.9l.23-4.361a10.949,10.949,0,0,1-1.016.613,6.261,6.261,0,0,1-.789.324q-.438.149-1.543.455t-1.77.534a7.887,7.887,0,0,0-1.2.517,4.021,4.021,0,0,0-.9.648,2.33,2.33,0,0,0-.535.753A2.161,2.161,0,0,0,844.1,68a1.963,1.963,0,0,0,.429,1.27,2.236,2.236,0,0,0,1.077.744,4.948,4.948,0,0,0,1.524.21,8.463,8.463,0,0,0,1.182-.088,10.082,10.082,0,0,0,1.672-.438,30.473,30.473,0,0,0-.858,2.978q-1.244.21-1.979.263t-1.366.052a9.451,9.451,0,0,1-3.626-.6,4.031,4.031,0,0,1-2.093-1.892,5.6,5.6,0,0,1-.674-2.61,4.4,4.4,0,0,1,.263-1.489,4.453,4.453,0,0,1,.771-1.349,6.752,6.752,0,0,1,1.315-1.182,9.712,9.712,0,0,1,2.331-1.1,35.119,35.119,0,0,1,4.031-1.077q.666-.14,1.385-.341a8.464,8.464,0,0,0,1.148-.394,2.554,2.554,0,0,0,.745-.5,2.092,2.092,0,0,0,.464-.639,1.652,1.652,0,0,0,.149-.683,1.621,1.621,0,0,0-.447-1.156,2.367,2.367,0,0,0-1.157-.657,6.264,6.264,0,0,0-1.569-.184A19.353,19.353,0,0,0,841.771,58.662Z" transform="translate(-839.389 -48.381)" fill="#fff"/>
        <path id="Path_8" data-name="Path 8" d="M928.744,53.623q.267-2.628.374-4.4.178-2.8.311-6.463t.187-6.954q1.705.036,2.559.035.783,0,2.542-.035-.237,3.048-.381,5.815t-.211,6.34q-.068,3.573-.068,5.658-1.6-.035-2.56-.035Q930.585,53.588,928.744,53.623Zm.96-20.861q.07-1.8.07-2.767v-.561q1.593.036,2.592.035,1.366,0,2.54-.035-.053.438-.07,1l-.087,2.329q-1.332-.035-2.452-.035T929.7,32.762Z" transform="translate(-907.375 -29.434)" fill="#fff"/>
        <path id="Path_9" data-name="Path 9" d="M968.808,54.515q.261-2.96.636-10.641t.462-13.268q1.823.036,2.595.035,1.034,0,2.525-.035L974.608,37,974,51.257l-.07,3.258q-1.438-.035-2.437-.035Q971.157,54.48,968.808,54.515Z" transform="translate(-937.858 -30.326)" fill="#fff"/>
        <path id="Path_10" data-name="Path 10" d="M1016.525,54.336a12.351,12.351,0,0,1,3.862.6,8.445,8.445,0,0,1,3.135,1.787,7.449,7.449,0,0,1,1.936,2.89,10.063,10.063,0,0,1,.648,3.6,11.069,11.069,0,0,1-.683,3.853,9.181,9.181,0,0,1-1.979,3.214,8.04,8.04,0,0,1-3.232,2.032,12.458,12.458,0,0,1-4.125.674,12.242,12.242,0,0,1-3.862-.6,8.354,8.354,0,0,1-3.126-1.813,7.844,7.844,0,0,1-1.971-2.943,9.914,9.914,0,0,1-.674-3.626,11.048,11.048,0,0,1,.613-3.678,8.564,8.564,0,0,1,1.918-3.118,8.713,8.713,0,0,1,3.337-2.119A12,12,0,0,1,1016.525,54.336Zm0,3.608a5.027,5.027,0,0,0-2.714.744,4.452,4.452,0,0,0-1.78,2.216,8.606,8.606,0,0,0-.585,3.205,7.215,7.215,0,0,0,.48,2.715,4.154,4.154,0,0,0,1.571,1.927,4.525,4.525,0,0,0,2.592.736,4.8,4.8,0,0,0,2.7-.762,4.612,4.612,0,0,0,1.745-2.242,8.828,8.828,0,0,0,.585-3.267,7.377,7.377,0,0,0-.454-2.645,3.936,3.936,0,0,0-1.527-1.909A4.588,4.588,0,0,0,1016.524,57.944Z" transform="translate(-966.501 -48.381)" fill="#fff"/>
        <path id="Path_11" data-name="Path 11" d="M1101.083,72.57l.507-8.32.14-4.834q.035-1.489.035-3,0-.263-.035-1.664,1.629.036,2.4.035.893,0,2.365-.035l-.088,2.47a10.61,10.61,0,0,1,1.138-1.41,5,5,0,0,1,2.365-1.3,6.114,6.114,0,0,1,2.907,0q0,1.629.158,4.134a7.239,7.239,0,0,0-1.874-.28,4.886,4.886,0,0,0-1.8.307,4.085,4.085,0,0,0-1.4.928,5,5,0,0,0-1.025,1.532,6.954,6.954,0,0,0-.49,1.909q-.136.911-.23,3.118t-.094,4.344q0,.824.053,2.067-1.334-.035-2.438-.035Q1102.591,72.535,1101.083,72.57Z" transform="translate(-1038.5 -48.381)" fill="#fff"/>
      </g>
      <g id="Group_30" data-name="Group 30" transform="translate(122.541)">
        <path id="Path_637" data-name="Path 637" d="M0,0H9.47V31.872H0Z" fill="#494949"/>
        <g id="Group_29" data-name="Group 29" transform="translate(1.892 2.645)">
          <rect id="Rectangle_314" data-name="Rectangle 314" width="4.384" height="18.593" rx="2.192" transform="matrix(0.999, 0.054, -0.054, 0.999, 0.999, 5.756)" fill="#fff"/>
          <rect id="Rectangle_315" data-name="Rectangle 315" width="4.384" height="4.384" rx="2.192" transform="translate(1.308 0) rotate(3.079)" fill="#fff"/>
        </g>
      </g>
    </g>
    <g id="Group_33" data-name="Group 33" transform="translate(481.937 22.151)">
      <g id="Group_32" data-name="Group 32" transform="translate(0)">
        <path id="Path_12" data-name="Path 12" d="M742.964,37.781a.975.975,0,0,0,.974-.974V35.634a.975.975,0,0,0-.974-.974H741.79a.974.974,0,0,0-.973.974v.179H731.6v-.179a.975.975,0,0,0-.974-.974H729.45a.975.975,0,0,0-.974.974v.179h-9.219v-.179a.975.975,0,0,0-.974-.974h-1.174a.975.975,0,0,0-.974.974v1.174a.975.975,0,0,0,.974.974h.152v9.245h-.152a.975.975,0,0,0-.974.974v1.174a.975.975,0,0,0,.974.974h.152v9.245h-.152a.975.975,0,0,0-.974.974V61.54a.975.975,0,0,0,.974.974h1.174a.975.975,0,0,0,.974-.974v-.179h9.219v.179a.975.975,0,0,0,.974.974h1.174a.975.975,0,0,0,.974-.974V60.366a.975.975,0,0,0-.974-.974H729.45a.975.975,0,0,0-.974.974v.179h-9.219v-.179a.975.975,0,0,0-.974-.974h-.206V50.147h.206a.975.975,0,0,0,.974-.974V48a.975.975,0,0,0-.974-.974h-.206V37.781h.206a.975.975,0,0,0,.974-.974v-.179h9.219v.179a.975.975,0,0,0,.974.974h1.174a.975.975,0,0,0,.974-.974v-.179h9.218v.179a.975.975,0,0,0,.974.974H742v9.245h-.205a.975.975,0,0,0-.974.974v1.174a.975.975,0,0,0,.974.974h1.174a.975.975,0,0,0,.974-.974V48a.975.975,0,0,0-.974-.974h-.152V37.781ZM729.292,60.366a.158.158,0,0,1,.158-.158h1.174a.158.158,0,0,1,.158.158V61.54a.158.158,0,0,1-.158.158H729.45a.158.158,0,0,1-.158-.158Zm-10.851,0V61.54a.158.158,0,0,1-.157.158h-1.174a.158.158,0,0,1-.158-.158V60.366a.158.158,0,0,1,.158-.158h1.174A.158.158,0,0,1,718.442,60.366Zm0-12.366v1.174a.158.158,0,0,1-.157.158h-1.174a.158.158,0,0,1-.158-.158V48a.158.158,0,0,1,.158-.158h1.174A.158.158,0,0,1,718.442,48Zm0-11.192a.158.158,0,0,1-.157.158h-1.174a.158.158,0,0,1-.158-.158V35.634a.158.158,0,0,1,.158-.158h1.174a.158.158,0,0,1,.157.158Zm12.34,0a.158.158,0,0,1-.158.158H729.45a.158.158,0,0,1-.158-.158V35.634a.158.158,0,0,1,.158-.158h1.174a.158.158,0,0,1,.158.158ZM743.121,48v1.174a.158.158,0,0,1-.157.158H741.79a.158.158,0,0,1-.158-.158V48a.158.158,0,0,1,.158-.158h1.174A.158.158,0,0,1,743.121,48Zm-1.489-11.192V35.634a.158.158,0,0,1,.158-.158h1.174a.158.158,0,0,1,.158.158v1.174a.158.158,0,0,1-.158.158H741.79A.158.158,0,0,1,741.632,36.808Z" transform="translate(-716.137 -34.66)" fill="#fff"/>
        <path id="Path_13" data-name="Path 13" d="M808.094,121.438a.971.971,0,0,0-1.061.211l-1.328,1.329a.408.408,0,0,0,.577.577l1.329-1.328a.157.157,0,0,1,.269.111v4.019a.158.158,0,0,1-.158.158H803.7a.158.158,0,0,1-.111-.269l1.434-1.434a.408.408,0,1,0-.577-.577l-1.434,1.434a.973.973,0,0,0,.688,1.662h4.019a.975.975,0,0,0,.974-.974v-4.019A.97.97,0,0,0,808.094,121.438Z" transform="translate(-782.021 -100.629)" fill="#fff"/>
        <path id="Path_14" data-name="Path 14" d="M738.829,57.464h4.506V70.982h-2.253v2.253h9.012V70.982h-2.253V57.464h4.506v2.253H754.6V55.211H736.576v4.506h2.253Z" transform="translate(-731.688 -50.296)" fill="#fff"/>
      </g>
    </g>
  </g>
</svg>
