<svg id="Group_46" data-name="Group 46" xmlns="http://www.w3.org/2000/svg" width="91.575" height="91.75" viewBox="0 0 91.575 91.75">
  <g id="Group_32" data-name="Group 32" transform="translate(0)">
    <path id="Path_12" data-name="Path 12" d="M804.5,44.941a3.211,3.211,0,0,0,3.208-3.207V37.867A3.211,3.211,0,0,0,804.5,34.66h-3.866a3.21,3.21,0,0,0-3.206,3.207v.59H767.064v-.59a3.21,3.21,0,0,0-3.207-3.207H759.99a3.21,3.21,0,0,0-3.207,3.207v.59H726.418v-.59a3.21,3.21,0,0,0-3.207-3.207h-3.867a3.21,3.21,0,0,0-3.207,3.207v3.867a3.21,3.21,0,0,0,3.207,3.207h.5V75.394h-.5a3.21,3.21,0,0,0-3.207,3.208v3.866a3.211,3.211,0,0,0,3.207,3.208h.5v30.453h-.5a3.21,3.21,0,0,0-3.207,3.208V123.2a3.21,3.21,0,0,0,3.207,3.207h3.867a3.21,3.21,0,0,0,3.207-3.207v-.59h30.366v.59a3.21,3.21,0,0,0,3.207,3.207h3.867a3.21,3.21,0,0,0,3.207-3.207v-3.867a3.21,3.21,0,0,0-3.207-3.207H759.99a3.21,3.21,0,0,0-3.207,3.207v.589H726.418v-.589a3.21,3.21,0,0,0-3.207-3.207h-.678V85.676h.678a3.21,3.21,0,0,0,3.207-3.208V78.6a3.21,3.21,0,0,0-3.207-3.208h-.678V44.941h.678a3.21,3.21,0,0,0,3.207-3.207v-.589h30.366v.589a3.21,3.21,0,0,0,3.207,3.207h3.867a3.21,3.21,0,0,0,3.207-3.207v-.589H797.43v.589a3.211,3.211,0,0,0,3.207,3.207h.677V75.394h-.677A3.211,3.211,0,0,0,797.43,78.6v3.866a3.211,3.211,0,0,0,3.207,3.208H804.5a3.212,3.212,0,0,0,3.208-3.208V78.6a3.211,3.211,0,0,0-3.208-3.208H804V44.941Zm-45.032,74.4a.519.519,0,0,1,.519-.519h3.867a.519.519,0,0,1,.519.519V123.2a.52.52,0,0,1-.519.519H759.99a.52.52,0,0,1-.519-.519Zm-35.742,0V123.2a.52.52,0,0,1-.518.519h-3.867a.52.52,0,0,1-.519-.519v-3.867a.52.52,0,0,1,.519-.519h3.867A.519.519,0,0,1,723.729,119.336Zm0-40.734v3.866a.52.52,0,0,1-.518.52h-3.867a.52.52,0,0,1-.519-.52V78.6a.52.52,0,0,1,.519-.52h3.867A.52.52,0,0,1,723.729,78.6Zm0-36.868a.519.519,0,0,1-.518.519h-3.867a.52.52,0,0,1-.519-.519V37.867a.52.52,0,0,1,.519-.519h3.867a.52.52,0,0,1,.518.519Zm40.648,0a.519.519,0,0,1-.519.519H759.99a.519.519,0,0,1-.519-.519V37.867a.52.52,0,0,1,.519-.519h3.867a.52.52,0,0,1,.519.519ZM805.023,78.6v3.866a.52.52,0,0,1-.519.52h-3.866a.52.52,0,0,1-.52-.52V78.6a.52.52,0,0,1,.52-.52H804.5A.52.52,0,0,1,805.023,78.6Zm-4.905-36.868V37.867a.519.519,0,0,1,.519-.519H804.5a.52.52,0,0,1,.52.519v3.867a.52.52,0,0,1-.52.519h-3.866A.519.519,0,0,1,800.118,41.734Z" transform="translate(-716.137 -34.66)" fill="#b2b1b1"/>
    <path id="Path_13" data-name="Path 13" d="M820.4,121.61a3.2,3.2,0,0,0-3.5.695l-4.376,4.377a1.344,1.344,0,0,0,1.9,1.9l4.377-4.376a.519.519,0,0,1,.886.366V137.81a.52.52,0,0,1-.52.519H805.937a.519.519,0,0,1-.367-.886l4.723-4.723a1.344,1.344,0,0,0-1.9-1.9l-4.723,4.723a3.206,3.206,0,0,0,2.268,5.474h13.237a3.21,3.21,0,0,0,3.208-3.207V124.572A3.2,3.2,0,0,0,820.4,121.61Z" transform="translate(-734.517 -53.063)" fill="#b2b1b1"/>
  </g>
</svg>
