<svg xmlns="http://www.w3.org/2000/svg" height="512" viewBox="0 0 64 64" width="512"><g id="Vector-3" data-name="Vector"><path d="m39.368 44.346 5.551-12.952a1 1 0 0 0 -.087-.949l-12-18a1.039 1.039 0 0 0 -1.664 0l-12 18a1 1 0 0 0 -.087.949l5.551 12.952a2.979 2.979 0 0 0 .368 5.47v11.184a1 1 0 0 0 1 1h12a1 1 0 0 0 1-1v-11.184a2.979 2.979 0 0 0 .368-5.47zm-7.368-16.346a3 3 0 1 1 -3 3 3 3 0 0 1 3-3zm-1-11.7v9.8a5 5 0 1 0 2 0v-9.8l9.868 14.8-5.527 12.9h-10.682l-5.527-12.9zm-4 43.7v-10h10v10zm11-12h-12a1 1 0 0 1 0-2h12a1 1 0 0 1 0 2z" style="&#10;    fill: #37a000;&#10;    /* stroke: #37a000; */&#10;"/><path d="m59.979 30.178a26.692 26.692 0 0 0 -17.22-24.178h13.425a3 3 0 1 0 0-2h-48.368a3 3 0 1 0 0 2h13.425a26.692 26.692 0 0 0 -17.22 24.178 3 3 0 1 0 2 .013c.431-13.629 11.679-24.191 25.979-24.191s25.548 10.562 25.979 24.191a3 3 0 1 0 2-.013zm-.979-26.178a1 1 0 1 1 -1 1 1 1 0 0 1 1-1zm-54 2a1 1 0 1 1 1-1 1 1 0 0 1 -1 1zm0 28a1 1 0 1 1 1-1 1 1 0 0 1 -1 1zm54 0a1 1 0 1 1 1-1 1 1 0 0 1 -1 1z" style="&#10;    fill: #494949;&#10;"/><path d="m2 60h4v2h-4z" style="&#10;    fill: #37a000;&#10;"/><path d="m8 60h14v2h-14z" style="&#10;    fill: #37a000;&#10;"/><path d="m58 60h4v2h-4z" style="&#10;    fill: #37a000;&#10;"/><path d="m42 60h14v2h-14z" style="&#10;    fill: #37a000;&#10;"/></g></svg>