<svg xmlns="http://www.w3.org/2000/svg" width="1609.462" height="1537" viewBox="0 0 1609.462 1537">
  <g id="formats" transform="translate(-2201 813)">
    <path id="Path_1" data-name="Path 1" d="M494.479,138.557,364.04,3.018A9.853,9.853,0,0,0,356.945,0H162.535a39.5,39.5,0,0,0-39.458,39.442V177.231H44.29a29.55,29.55,0,0,0-29.521,29.513V354.488A29.55,29.55,0,0,0,44.29,384h78.787v88.627A39.461,39.461,0,0,0,162.535,512H457.773a39.45,39.45,0,0,0,39.458-39.351V145.385A9.851,9.851,0,0,0,494.479,138.557ZM359.385,26.581,466.464,137.846H359.385ZM44.29,364.308a9.834,9.834,0,0,1-9.828-9.82V206.744a9.836,9.836,0,0,1,9.828-9.821H310.172A9.835,9.835,0,0,1,320,206.744V354.488a9.835,9.835,0,0,1-9.828,9.82ZM477.538,472.649a19.735,19.735,0,0,1-19.766,19.659H162.535a19.745,19.745,0,0,1-19.766-19.68V384h167.4a29.55,29.55,0,0,0,29.521-29.512V206.744a29.55,29.55,0,0,0-29.521-29.513h-167.4V39.442a19.78,19.78,0,0,1,19.766-19.75H339.692v128a9.846,9.846,0,0,0,9.846,9.846h128V472.649Z" transform="translate(2186.231 -300)" fill="#37a000"/>
    <path id="Path_1-2" data-name="Path 1" d="M494.479,138.557,364.04,3.018A9.853,9.853,0,0,0,356.945,0H162.535a39.5,39.5,0,0,0-39.458,39.442V177.231H44.29a29.55,29.55,0,0,0-29.521,29.513V354.488A29.55,29.55,0,0,0,44.29,384h78.787v88.627A39.461,39.461,0,0,0,162.535,512H457.773a39.45,39.45,0,0,0,39.458-39.351V145.385A9.851,9.851,0,0,0,494.479,138.557ZM359.385,26.581,466.464,137.846H359.385ZM44.29,364.308a9.834,9.834,0,0,1-9.828-9.82V206.744a9.836,9.836,0,0,1,9.828-9.821H310.172A9.835,9.835,0,0,1,320,206.744V354.488a9.835,9.835,0,0,1-9.828,9.82ZM477.538,472.649a19.735,19.735,0,0,1-19.766,19.659H162.535a19.745,19.745,0,0,1-19.766-19.68V384h167.4a29.55,29.55,0,0,0,29.521-29.512V206.744a29.55,29.55,0,0,0-29.521-29.513h-167.4V39.442a19.78,19.78,0,0,1,19.766-19.75H339.692v128a9.846,9.846,0,0,0,9.846,9.846h128V472.649Z" transform="translate(2740.231 -813)"/>
    <rect id="Rectangle_3" data-name="Rectangle 3" width="295" height="171" rx="10" transform="translate(2768.973 -617.93)"/>
    <text id="PNG" transform="translate(2840 -505)" fill="#fff" font-size="68" font-family="SegoeUI-Bold, Segoe UI" font-weight="700"><tspan x="0" y="0">PNG</tspan></text>
    <rect id="Rectangle_4" data-name="Rectangle 4" width="295" height="178" rx="10" transform="translate(2768.973 406.07)"/>
    <text id="AI" transform="translate(2847 518)" fill="#fff" font-size="68" font-family="SegoeUI-Bold, Segoe UI" font-weight="700"><tspan x="0" y="0">AI</tspan></text>
    <rect id="Rectangle_1" data-name="Rectangle 1" width="293" height="170" rx="10" transform="translate(2218.973 -103.93)" fill="#37a000"/>
    <text id="PDF" transform="translate(2276 7)" fill="#fff" font-size="68" font-family="SegoeUI-Bold, Segoe UI" font-weight="700"><tspan x="0" y="0">PDF</tspan></text>
    <rect id="Rectangle_2" data-name="Rectangle 2" width="295" height="170" rx="10" transform="translate(3344.973 -103.93)" fill="#37a000"/>
    <text id="SVG" transform="translate(3403 7)" fill="#fff" font-size="68" font-family="SegoeUI-Bold, Segoe UI" font-weight="700"><tspan x="0" y="0">SVG</tspan></text>
    <path id="Path_1-3" data-name="Path 1" d="M494.479,138.557,364.04,3.018A9.853,9.853,0,0,0,356.945,0H162.535a39.5,39.5,0,0,0-39.458,39.442V177.231H44.29a29.55,29.55,0,0,0-29.521,29.513V354.488A29.55,29.55,0,0,0,44.29,384h78.787v88.627A39.461,39.461,0,0,0,162.535,512H457.773a39.45,39.45,0,0,0,39.458-39.351V145.385A9.851,9.851,0,0,0,494.479,138.557ZM359.385,26.581,466.464,137.846H359.385ZM44.29,364.308a9.834,9.834,0,0,1-9.828-9.82V206.744a9.836,9.836,0,0,1,9.828-9.821H310.172A9.835,9.835,0,0,1,320,206.744V354.488a9.835,9.835,0,0,1-9.828,9.82ZM477.538,472.649a19.735,19.735,0,0,1-19.766,19.659H162.535a19.745,19.745,0,0,1-19.766-19.68V384h167.4a29.55,29.55,0,0,0,29.521-29.512V206.744a29.55,29.55,0,0,0-29.521-29.513h-167.4V39.442a19.78,19.78,0,0,1,19.766-19.75H339.692v128a9.846,9.846,0,0,0,9.846,9.846h128V472.649Z" transform="translate(2740.231 212)"/>
    <path id="Path_1-4" data-name="Path 1" d="M494.479,138.557,364.04,3.018A9.853,9.853,0,0,0,356.945,0H162.535a39.5,39.5,0,0,0-39.458,39.442V177.231H44.29a29.55,29.55,0,0,0-29.521,29.513V354.488A29.55,29.55,0,0,0,44.29,384h78.787v88.627A39.461,39.461,0,0,0,162.535,512H457.773a39.45,39.45,0,0,0,39.458-39.351V145.385A9.851,9.851,0,0,0,494.479,138.557ZM359.385,26.581,466.464,137.846H359.385ZM44.29,364.308a9.834,9.834,0,0,1-9.828-9.82V206.744a9.836,9.836,0,0,1,9.828-9.821H310.172A9.835,9.835,0,0,1,320,206.744V354.488a9.835,9.835,0,0,1-9.828,9.82ZM477.538,472.649a19.735,19.735,0,0,1-19.766,19.659H162.535a19.745,19.745,0,0,1-19.766-19.68V384h167.4a29.55,29.55,0,0,0,29.521-29.512V206.744a29.55,29.55,0,0,0-29.521-29.513h-167.4V39.442a19.78,19.78,0,0,1,19.766-19.75H339.692v128a9.846,9.846,0,0,0,9.846,9.846h128V472.649Z" transform="translate(3313.231 -300)" fill="#37a000"/>
    <path id="Path_2" data-name="Path 2" d="M88,0l88,86H0Z" transform="translate(3161.053 -605.114) rotate(-135)"/>
    <path id="Path_4" data-name="Path 4" d="M88,0l88,86H0Z" transform="translate(3161.053 415.886) rotate(-135)"/>
    <path id="Path_3" data-name="Path 3" d="M88,0l88,86H0Z" transform="translate(3734.053 -93.114) rotate(-135)" fill="#37a000"/>
    <path id="Path_5" data-name="Path 5" d="M88,0l88,86H0Z" transform="translate(2608.053 -93.114) rotate(-135)" fill="#37a000"/>
  </g>
</svg>
