<svg version="1.1" xmlns="http://www.w3.org/2000/svg" xmlns:xlink="http://www.w3.org/1999/xlink" viewBox="0 0 60 60" xml:space="preserve" data-animoptions="{'duration':'3', 'repeat':'0', 'repeatDelay':'0.7'}" preserveAspectRatio="xMinYMin meet" style="left: 0.5px; top: 0px;"><g class="lievo-setrotation"><g class="lievo-setsharp"><g class="lievo-setflip"><g class="lievo-main">
		<g class="lievo-common">
			<path class="lievo-donotdraw lievo-savelinecap lievo-altstroke" fill="none" stroke="#22a7f0" stroke-width="3" stroke-linecap="round" stroke-linejoin="round" stroke-miterlimit="10" d="M30,10c11.05,0,20,8.95,20,20c0,11.05-8.95,20-20,20c-11.05,0-20-8.95-20-20C10,18.95,18.95,10,30,10z" opacity="0" style="stroke: rgb(34, 167, 240); opacity: 0; stroke-dashoffset: 1e-05; stroke-dasharray: none;"></path>
			<path class="lievo-donotdraw lievo-savelinecap lievo-likestroke lievo-altstroke" fill="#22a7f0" stroke="#22a7f0" stroke-width="3" stroke-linecap="round" stroke-linejoin="round" stroke-miterlimit="10" d="M22,22c1.1,0,2,0.9,2,2s-0.9,2-2,2s-2-0.9-2-2S20.9,22,22,22z" opacity="0" style="stroke: rgb(34, 167, 240); fill: rgb(34, 167, 240); opacity: 0; stroke-dashoffset: 1e-05; stroke-dasharray: none;"></path>
			<path class="lievo-donotdraw lievo-savelinecap lievo-likestroke lievo-altstroke" fill="#22a7f0" stroke="#22a7f0" stroke-width="3" stroke-linecap="round" stroke-linejoin="round" stroke-miterlimit="10" d="M38,22c-1.1,0-2,0.9-2,2s0.9,2,2,2s2-0.9,2-2S39.1,22,38,22z" opacity="0" style="stroke: rgb(34, 167, 240); fill: rgb(34, 167, 240); opacity: 0; stroke-dashoffset: 1e-05; stroke-dasharray: none;"></path>
			<path class="lievo-donotdraw lievo-savelinecap lievo-altstroke" fill="none" stroke="#22a7f0" stroke-width="3" stroke-linecap="round" stroke-linejoin="round" stroke-miterlimit="10" d="M20,36c0,0,3,6,10,6s10-6,10-6" opacity="0" style="stroke:#37a000; opacity: 0; stroke-dashoffset: 1e-05; stroke-dasharray: none;"></path>
		</g>

		<g class="lievo-filledicon lievo-lineicon">
			<g data-svg-origin="11.319998741149902 10.998751640319824" style="transform: matrix(1, 0, 0, 1, 0, 0);">
				<g data-svg-origin="11.319998741149902 47.00023937225342" style="transform: matrix(1, 0, 0, 1, 0, 0);">
					<path fill="none" stroke="#22a7f0" stroke-width="2" stroke-linecap="square" stroke-miterlimit="10" d="M50.63,11.37c0.52,0.52,0.48,1.44-0.07,2.08c-2.26,2.62-12.33,13.78-14.36,16.36c-1.42,1.81-3.66,5.66-7.86,7.86c-0.38,0.2-0.69,0.7-1.07,1.07c-0.61,0.58-1.47,0.67-2.14,0.01l-2-2c-0.66-0.66-0.49-1.45,0.13-2.02c0.39-0.37,0.87-0.69,1.07-1.07c2.2-4.2,6.05-6.44,7.86-7.86c2.58-2.03,13.74-12.1,16.36-14.36C49.19,10.89,50.11,10.84,50.63,11.37z" style="stroke:#37a000;"></path>
					<path class="lievo-altstroke" fill="none" stroke="#22a7f0" stroke-width="2" stroke-linecap="square" stroke-miterlimit="10" d="M24.06,37.72l-1.02-1.02c-7.79-1.6-5.35,7.48-11.72,9.66c6.37,2.1,15.99-1.11,13.86-7.52L24.06,37.72z" style="stroke: #37a000;"></path>
				</g>
			</g>
		</g>

		
	<rect x="-19" y="-19" width="4" height="4" fill="none" stroke="#22a7f0" style="stroke-width: 2; stroke-linecap: butt; stroke-linejoin: round; opacity: 0;" class="lievo-checkshift lievo-donotdraw lievo-nohoverstroke lievo-nohovercolor"></rect></g></g></g></g>
	
<desc>LivIcons Evolution</desc><defs></defs></svg>