<svg id="Layer_1" data-name="Layer 1" xmlns="http://www.w3.org/2000/svg" viewBox="0 0 27.05 28.35"><defs><style>.cls-1{fill:#38373f;}.cls-2{fill:#36353d;}.cls-3{fill:#3a3941;}.cls-4{fill:#3b3a42;}.cls-5{fill:#39383f;}</style></defs><title>160x160-pie</title><path class="cls-1" d="M22.32,0.83A20.09,20.09,0,0,0,25,3.27c1.27,1.17,2.58,2.29,4,3.58-1,0-1.78,0-2.56,0a0.57,0.57,0,0,0-.72.54C24,17.35,13.13,23.41,3,20.33l-0.5-.16C2.27,20.11,2.05,20,2.1,19.77s0.31-.21.51-0.19a19.25,19.25,0,0,0,2.91.08A15.12,15.12,0,0,0,18.93,7.47c0.1-.55-0.08-0.65-0.57-0.63-0.94,0-1.89,0-2.9,0a1.42,1.42,0,0,1,.61-0.71l5.24-4.62A1.71,1.71,0,0,0,22,.83h0.35Z" transform="translate(-1.95 -0.83)"/><path class="cls-2" d="M24.21,29.17q0-6.86,0-13.72a0.88,0.88,0,0,1,.16-0.58A17.71,17.71,0,0,0,27.47,8.3a0.6,0.6,0,0,1,.17.61q0,9.83,0,19.66a5.08,5.08,0,0,1-.07.61H24.21Z" transform="translate(-1.95 -0.83)"/><path class="cls-3" d="M17.89,29.17q0-4.55,0-9.09a0.59,0.59,0,0,1,.2-0.63A21.18,21.18,0,0,0,21.44,17V29.17H17.89Z" transform="translate(-1.95 -0.83)"/><path class="cls-1" d="M12.58,29.17c0-2.3,0-4.6,0-6.9a0.75,0.75,0,0,1,.68-0.88c0.93-.24,1.85-0.56,2.87-0.87v8.65H12.58Z" transform="translate(-1.95 -0.83)"/><path class="cls-4" d="M1.95,29.17c0.17-2.41.07-4.83,0-7.25,0-.87.23-1,1-0.69a6,6,0,0,0,1,.29c1.54,0.36,1.55.36,1.54,1.9,0,1.92,0,3.83,0,5.75H1.95Z" transform="translate(-1.95 -0.83)"/><path class="cls-5" d="M7.26,29.17c0-2.15,0-4.29,0-6.44C7.27,22.14,7.44,22,8,22a12.51,12.51,0,0,0,2.11-.09c0.54-.06.71,0.07,0.7,0.64,0,2.2,0,4.41,0,6.62H7.26Z" transform="translate(-1.95 -0.83)"/></svg>