<?xml version="1.0"?>
<svg xmlns="http://www.w3.org/2000/svg" xmlns:xlink="http://www.w3.org/1999/xlink" version="1.1" id="Capa_1" x="0px" y="0px" viewBox="0 0 60 60" style="enable-background:new 0 0 60 60;" xml:space="preserve" width="512px" height="512px"><g transform="matrix(-1 0 0 -1 60 60)"><g>
	<path d="M59,32H1c-0.472,0-0.879,0.33-0.978,0.791s0.139,0.929,0.569,1.121l58,26C58.722,59.971,58.861,60,59,60   c0.19,0,0.379-0.054,0.543-0.16C59.828,59.655,60,59.339,60,59V33C60,32.447,59.552,32,59,32z M58,57.456L5.676,34H58V57.456z" data-original="#000000" class="active-path" data-old_color="#000000" fill="#33323A"/>
	<path d="M59.544,0.16c-0.285-0.185-0.642-0.21-0.953-0.072l-58,26c-0.43,0.192-0.667,0.66-0.569,1.121S0.529,28,1,28h58   c0.552,0,1-0.447,1-1V1C60,0.661,59.828,0.345,59.544,0.16z M58,26H5.676L58,2.544V26z" data-original="#000000" class="active-path" data-old_color="#000000" fill="#33323A"/>
</g></g> </svg>
